<?xml version="1.0" standalone="no"?>
<svg width="200px" height="200px" viewBox="0 0 200 200" xmlns="http://www.w3.org/2000/svg">
  <path fill="#f08030" d="M34.4,-46.5C46.5,-38.5,59.6,-31.1,69.1,-18.5C78.7,-5.9,84.7,11.8,80.8,27C76.9,42.2,63,54.9,47.8,62.8C32.7,70.8,16.4,74.1,0.3,73.6C-15.7,73.2,-31.4,69,-43.5,60.1C-55.6,51.1,-64,37.3,-69.2,22.3C-74.4,7.2,-76.4,-9.1,-71.1,-22.3C-65.7,-35.5,-53.1,-45.5,-40,-53.2C-26.9,-60.8,-13.5,-66,-1.2,-64.4C11.1,-62.8,22.3,-54.4,34.4,-46.5Z" transform="translate(100 100)" />
</svg>
